<svg width="109" height="31" viewBox="0 0 109 31" fill="none" xmlns="http://www.w3.org/2000/svg">
<path d="M83.2939 11.4902C88.9605 11.4904 92.7383 15.6679 92.7383 20.8623C92.7383 21.3709 92.7018 22.0249 92.5928 22.6787H79.1162C79.5885 24.8218 80.969 26.0205 83.5117 26.0205C85.0737 26.0205 86.5628 25.5118 87.0713 24.2041H92.4111C91.721 28.0181 88.2341 30.8152 83.6211 30.8154C77.8818 30.8154 73.8857 26.4198 73.8857 21.0801C73.8858 15.7404 77.6273 11.4902 83.2939 11.4902ZM35.582 11.5996C35.9373 11.5996 36.223 11.6342 36.2354 11.6357V16.7217C35.6906 16.6127 35.146 16.503 34.4561 16.5029C32.2039 16.5029 30.4961 18.0293 30.4961 20.2451V30.2344H25.5195V12.0713H30.4961V13.4521C31.5858 12.3987 33.2572 11.5996 35.582 11.5996ZM47.8857 11.5996C48.2485 11.5996 48.5393 11.6356 48.54 11.6357V16.7217C47.9952 16.6127 47.4499 16.5029 46.7598 16.5029C44.5078 16.5031 42.8008 18.0294 42.8008 20.2451V30.2344H37.8242V12.0713H42.8008V13.4521C43.8905 12.3988 45.5612 11.5997 47.8857 11.5996ZM55.1055 30.2344H50.1289V12.0723H55.1055V30.2344ZM65.4131 24.2773L69.2275 12.0723H74.5664L68.8271 30.2334H62.0713L56.332 12.0723H61.5625L65.4131 24.2773ZM22.7949 30.2324H17.709C17.709 28.4407 16.6782 26.7018 14.8066 25.3369C13.7668 24.5786 12.5478 23.9881 11.2129 23.584L6.77637 30.2324H0.855469L5.68848 22.9824C4.29819 23.075 2.96411 23.3472 1.71094 23.7949L0 19.0059C2.12674 18.2458 4.40718 17.8613 6.77637 17.8613C7.53409 17.8613 8.28378 17.9006 9.02246 17.9795L17.5635 5.16992H22.7949V30.2324ZM14.127 19.2217C15.4199 19.7329 16.6258 20.3839 17.71 21.1621V13.8516L14.127 19.2217ZM83.3301 16.0312C81.2233 16.0312 79.6248 17.0482 79.1162 19.2275H87.4346C87.0349 17.3751 85.6911 16.0313 83.3301 16.0312ZM105.35 0L103.698 2.8584C102.649 4.67455 103.961 6.94508 106.058 6.94531V6.94629H109L108.282 8.19043H105.34C102.42 8.19043 99.722 9.74815 98.2617 12.2764L96.6104 15.1357H95.1738L96.8252 12.2773C97.8741 10.4611 96.5626 8.19049 94.4658 8.19043H91.5234L92.2422 6.94629H95.1836C98.1032 6.94629 100.801 5.38759 102.262 2.85938L103.913 0H105.35ZM52.5996 4.58887C54.1978 4.58905 55.5781 5.96921 55.5781 7.56738C55.5781 9.16558 54.2341 10.5457 52.5996 10.5459C50.965 10.5459 49.6572 9.20201 49.6572 7.56738C49.6573 5.93278 50.965 4.58887 52.5996 4.58887Z" fill="#5F016F"/>
</svg>
