<svg width="129" height="36" viewBox="0 0 129 36" fill="none" xmlns="http://www.w3.org/2000/svg">
<path d="M98.1562 13.3018C104.777 13.3018 109.191 18.0011 109.191 23.8447C109.191 24.4168 109.15 25.1531 109.022 25.8887H93.2754C93.8272 28.2996 95.4401 29.6484 98.4111 29.6484C100.236 29.6484 101.976 29.0756 102.57 27.6045H108.81C108.003 31.8954 103.928 35.042 98.5381 35.042C91.8323 35.0418 87.1633 30.0978 87.1631 24.0908C87.1631 18.0836 91.5351 13.3018 98.1562 13.3018ZM42.4072 13.4248C42.8219 13.4248 43.1558 13.4631 43.1709 13.4648V19.1865C42.5344 19.064 41.898 18.9414 41.0918 18.9414C38.4603 18.9414 36.4649 20.6576 36.4648 23.1504V34.3887H30.6504V13.9561H36.4648V15.5088C37.7381 14.3237 39.6909 13.4248 42.4072 13.4248ZM56.7842 13.4248C57.2086 13.4248 57.5488 13.4648 57.5488 13.4648V19.1865C56.9122 19.0639 56.2751 18.9414 55.4688 18.9414C52.8372 18.9414 50.8418 20.6576 50.8418 23.1504V34.3887H45.0273V13.9561H50.8418V15.5088C52.1151 14.3237 54.0679 13.4248 56.7842 13.4248ZM65.2207 34.3887H59.4053V13.9561H65.2207V34.3887ZM77.2637 27.6865L81.7207 13.9561H87.96L81.2529 34.3877H73.3584L66.6523 13.9561H72.7646L77.2637 27.6865ZM27.4658 34.3867H21.5234C21.5234 32.3711 20.3196 30.4144 18.1328 28.8789C16.9179 28.0258 15.4934 27.3619 13.9336 26.9072L8.74902 34.3867H1.83105L7.47754 26.2305C5.85316 26.3347 4.29426 26.6399 2.83008 27.1436L0.831055 21.7568C3.3161 20.9017 5.98068 20.4688 8.74902 20.4688C9.63453 20.4688 10.5108 20.5138 11.374 20.6025L21.3545 6.19141H27.4658V34.3867ZM17.3379 21.999C18.8488 22.5742 20.2575 23.3071 21.5244 24.1826V15.958L17.3379 21.999ZM98.1992 18.4102C95.7376 18.4102 93.8697 19.5542 93.2754 22.0059H102.995C102.528 19.922 100.958 18.4103 98.1992 18.4102ZM123.928 0.375L121.999 3.59082C120.773 5.6341 122.306 8.18848 124.756 8.18848V8.18945H128.193L127.354 9.58887H123.916C120.505 9.58889 117.352 11.3413 115.646 14.1855L113.717 17.4023H112.038L113.967 14.1865C115.192 12.1432 113.66 9.58887 111.21 9.58887H107.772L108.611 8.18945H112.05C115.461 8.18945 118.614 6.43604 120.32 3.5918L122.249 0.375H123.928ZM62.291 5.53711C64.1586 5.53711 65.7715 7.09059 65.7715 8.88867C65.7713 10.6866 64.2009 12.2393 62.291 12.2393C60.3813 12.239 58.8537 10.7274 58.8535 8.88867C58.8535 7.04985 60.3812 5.53732 62.291 5.53711Z" fill="white"/>
</svg>
